<svg width="503" height="501" viewBox="0 0 503 501" fill="none" xmlns="http://www.w3.org/2000/svg">
<path d="M488.257 210.656C491.792 231.631 492.585 253.426 490.29 275.612C487.403 303.511 479.861 329.799 468.513 353.792" stroke="#6C63FF" stroke-width="5" stroke-miterlimit="10" stroke-linecap="round" stroke-linejoin="round" stroke-dasharray="60.76 60.76"/>
<path d="M184.149 19.3989C212.993 11.0819 243.888 8.05552 275.585 11.3344C295.023 13.3462 313.686 17.6179 331.33 23.8622" stroke="#6C63FF" stroke-width="5" stroke-miterlimit="10" stroke-linecap="round" stroke-linejoin="round" stroke-dasharray="60.76 60.76"/>
<path d="M175.976 479.727C96.9424 453.979 37.2862 388.998 17.2817 309.738" stroke="#6C63FF" stroke-width="5" stroke-miterlimit="10" stroke-linecap="round" stroke-linejoin="round" stroke-dasharray="60.76 60.76"/>
<path d="M375.796 375.827C444.831 306.792 444.831 194.863 375.796 125.827C306.76 56.7918 194.831 56.7918 125.796 125.827C56.7603 194.863 56.7603 306.792 125.796 375.827C194.831 444.863 306.76 444.863 375.796 375.827Z" fill="#8AFFE9"/>
<path d="M46.7749 209.223C47.0667 177.37 72.2877 152.472 104.193 151.731L150.302 151.122C181.794 152.855 206.876 179.082 206.588 210.656" fill="#FF97AB"/>
<path d="M46.7749 209.223C47.0667 177.37 72.2877 152.472 104.193 151.731L150.302 151.122C181.794 152.855 206.876 179.082 206.588 210.656" stroke="#6C63FF" stroke-width="5" stroke-miterlimit="10" stroke-linecap="round" stroke-linejoin="round"/>
<path d="M212.123 295.925H229.88C243.305 295.925 252.219 282.161 246.628 270.068L221.328 215.355L201.376 172.82L52.0177 172.759L31.961 215.533L6.73991 270.064C1.14877 282.161 10.0624 295.921 23.4872 295.921H42.7252" fill="#FF97AB"/>
<path d="M212.123 295.925H229.88C243.305 295.925 252.219 282.161 246.628 270.068L221.328 215.355L201.376 172.82L52.0177 172.759L31.961 215.533L6.73991 270.064C1.14877 282.161 10.0624 295.921 23.4872 295.921H42.7252" stroke="#6C63FF" stroke-width="5" stroke-miterlimit="10" stroke-linecap="round" stroke-linejoin="round"/>
<path d="M106.958 144.194V153.438C106.958 161.255 116.246 167.651 127.594 167.651C138.946 167.651 148.229 161.255 148.229 153.438V144.194" fill="white"/>
<path d="M106.958 144.194V153.438C106.958 161.255 116.246 167.651 127.594 167.651C138.946 167.651 148.229 161.255 148.229 153.438V144.194" stroke="#6C63FF" stroke-width="5" stroke-miterlimit="10" stroke-linecap="round" stroke-linejoin="round"/>
<path d="M161.154 34.8312C169.51 37.457 175.976 45.1992 175.976 56.5034V84.777L77.1299 85.0862V56.6036C77.1299 39.4775 91.0119 25.5911 108.142 25.5911H163.623L161.154 34.8312Z" fill="#FFF3B6" stroke="#6C63FF" stroke-width="5" stroke-miterlimit="10" stroke-linecap="round" stroke-linejoin="round"/>
<path d="M164.224 79.4776V75.3104C164.224 58.071 150.25 44.0975 133.011 44.0975H120.135C102.895 44.0975 88.9217 58.071 88.9217 75.3104V79.4907C80.3608 79.6082 73.4546 86.5754 73.4546 95.1667C73.4546 103.758 80.3608 110.725 88.9217 110.847V112.127C88.9217 130.965 104.193 146.24 123.035 146.24H130.115C148.952 146.24 164.228 130.969 164.228 112.127V110.86C172.893 110.86 179.917 103.836 179.917 95.1711C179.913 86.5057 172.889 79.4776 164.224 79.4776Z" fill="white" stroke="#6C63FF" stroke-width="5" stroke-miterlimit="10" stroke-linecap="round" stroke-linejoin="round"/>
<path d="M221.707 181.864V280.088H33.1323V181.864C33.1323 175.537 38.2619 170.403 44.5933 170.403H210.25C216.577 170.408 221.707 175.537 221.707 181.864Z" fill="white" stroke="#6C63FF" stroke-width="5" stroke-miterlimit="10" stroke-linecap="round" stroke-linejoin="round"/>
<path d="M207.616 295.925H46.1696C37.5608 295.925 30.585 284.159 30.585 269.65H223.187C223.187 284.159 216.22 295.925 207.616 295.925Z" fill="#67C9FF" stroke="#6C63FF" stroke-width="5" stroke-miterlimit="10" stroke-linecap="round" stroke-linejoin="round"/>
<path d="M478.646 31.6263C490.543 31.6263 500.197 41.2497 500.197 53.1331V172.454C500.197 184.333 490.543 193.961 478.646 193.961H407.155V211.81H425.814C428.265 211.81 430.242 213.787 430.242 216.23V226.977C430.242 229.411 428.265 231.401 425.814 231.401H407.155H352.937H334.278C331.827 231.401 329.85 229.411 329.85 226.977V216.23C329.85 213.782 331.827 211.81 334.278 211.81H352.937V193.961H281.446C269.532 193.961 259.895 184.338 259.895 172.454V53.1331C259.895 41.2541 269.536 31.6263 281.446 31.6263H478.646V31.6263Z" fill="white" stroke="#6C63FF" stroke-width="5" stroke-miterlimit="10" stroke-linecap="round" stroke-linejoin="round"/>
<path d="M385.774 155.263L391.649 161.376C393.342 163.14 396.155 163.166 397.884 161.437L407.412 151.897C409.11 150.194 409.11 147.442 407.416 145.735L401.189 139.469C404.934 133.817 407.59 127.699 409.036 120.466C409.036 120.466 414.549 120.466 418.651 120.466C421.059 120.466 423.014 118.511 423.014 116.103V103.135C423.014 100.723 421.059 98.7723 418.651 98.7723H409.136C407.743 91.5439 405.038 85.2429 401.307 79.5342L407.364 73.4206C409.053 71.718 409.049 68.9703 407.355 67.2677L397.854 57.7401C396.116 55.994 393.277 56.0375 391.588 57.8272L386.153 63.5925C380.44 59.8085 372.393 57.0347 367.573 55.6021V47.6944C367.573 45.2863 365.617 43.3312 363.209 43.3312H347.834C345.426 43.3312 343.471 45.2863 343.471 47.6944V55.6021C336.238 57.0347 330.446 59.7824 324.733 63.5707L318.955 57.6661C317.257 55.9287 314.466 55.9199 312.75 57.6443L303.261 67.1893C301.576 68.8876 301.572 71.6265 303.248 73.3291L309.371 79.5342C305.639 85.2429 302.983 91.5439 301.585 98.7723H292.393C289.985 98.7723 288.03 100.727 288.03 103.135V116.103C288.03 118.511 289.985 120.466 292.393 120.466H301.685C303.131 127.695 305.857 133.817 309.597 139.469L303.37 145.735C301.676 147.438 301.681 150.194 303.375 151.897L312.898 161.437C314.627 163.166 317.44 163.14 319.134 161.376L325.008 155.263C330.651 158.951 336.234 161.655 343.466 163.062V171.544C343.466 173.952 345.421 175.907 347.829 175.907H363.205C365.613 175.907 367.568 173.952 367.568 171.544V163.062C372.389 161.655 380.222 158.968 385.87 155.276" fill="#67C9FF"/>
<path d="M385.774 155.263L391.649 161.376C393.342 163.14 396.155 163.166 397.884 161.437L407.412 151.897C409.11 150.194 409.11 147.442 407.416 145.735L401.189 139.469C404.934 133.817 407.59 127.699 409.036 120.466C409.036 120.466 414.549 120.466 418.651 120.466C421.059 120.466 423.014 118.511 423.014 116.103V103.135C423.014 100.723 421.059 98.7723 418.651 98.7723H409.136C407.743 91.5439 405.038 85.2429 401.307 79.5342L407.364 73.4206C409.053 71.718 409.049 68.9703 407.355 67.2677L397.854 57.7401C396.116 55.994 393.277 56.0375 391.588 57.8272L386.153 63.5925C380.44 59.8085 372.393 57.0347 367.573 55.6021V47.6944C367.573 45.2863 365.617 43.3312 363.209 43.3312H347.834C345.426 43.3312 343.471 45.2863 343.471 47.6944V55.6021C336.238 57.0347 330.446 59.7824 324.733 63.5707L318.955 57.6661C317.257 55.9287 314.466 55.9199 312.75 57.6443L303.261 67.1893C301.576 68.8876 301.572 71.6265 303.248 73.3291L309.371 79.5342C305.639 85.2429 302.983 91.5439 301.585 98.7723H292.393C289.985 98.7723 288.03 100.727 288.03 103.135V116.103C288.03 118.511 289.985 120.466 292.393 120.466H301.685C303.131 127.695 305.857 133.817 309.597 139.469L303.37 145.735C301.676 147.438 301.681 150.194 303.375 151.897L312.898 161.437C314.627 163.166 317.44 163.14 319.134 161.376L325.008 155.263C330.651 158.951 336.234 161.655 343.466 163.062V171.544C343.466 173.952 345.421 175.907 347.829 175.907H363.205C365.613 175.907 367.568 173.952 367.568 171.544V163.062C372.389 161.655 380.222 158.968 385.87 155.276" stroke="#6C63FF" stroke-width="5" stroke-miterlimit="10" stroke-linecap="round" stroke-linejoin="round"/>
<path d="M355.515 142.099C373.453 142.099 387.995 127.557 387.995 109.619C387.995 91.681 373.453 77.1392 355.515 77.1392C337.577 77.1392 323.035 91.681 323.035 109.619C323.035 127.557 337.577 142.099 355.515 142.099Z" fill="white" stroke="#6C63FF" stroke-width="5" stroke-miterlimit="10" stroke-linecap="round" stroke-linejoin="round"/>
<path d="M445.004 160.898L449.271 165.339C450.503 166.619 452.546 166.641 453.804 165.383L460.728 158.446C461.96 157.209 461.964 155.206 460.732 153.97L456.203 149.415C458.925 145.309 460.858 140.858 461.908 135.602C461.908 135.602 465.914 135.602 468.897 135.602C470.647 135.602 472.067 134.183 472.067 132.432V123.005C472.067 121.25 470.647 119.831 468.897 119.831H461.982C460.967 114.575 459.003 109.994 456.291 105.844L460.693 101.398C461.921 100.161 461.917 98.1627 460.684 96.926L453.778 90.0024C452.515 88.7352 450.451 88.7614 449.223 90.0677L445.274 94.2567C441.12 91.5047 435.272 89.4886 431.766 88.4479V82.7C431.766 80.9495 430.347 79.5299 428.596 79.5299H417.418C415.668 79.5299 414.248 80.9495 414.248 82.7V88.4479C408.992 89.4886 404.782 91.4873 400.627 94.2393L396.425 89.9458C395.189 88.683 393.16 88.6743 391.914 89.9284L385.017 96.8694C383.789 98.1017 383.789 100.096 385.008 101.333L389.458 105.844C386.745 109.994 384.812 114.575 383.797 119.831H377.113C375.363 119.831 373.939 121.25 373.939 123.005V132.432C373.939 134.183 375.359 135.602 377.113 135.607H383.867C384.917 140.863 386.898 145.313 389.619 149.419L385.091 153.974C383.858 155.215 383.863 157.214 385.095 158.45L392.019 165.387C393.273 166.645 395.319 166.628 396.552 165.343L400.819 160.902C404.921 163.584 408.979 165.548 414.235 166.571V172.737C414.235 174.488 415.655 175.907 417.405 175.907H428.583C430.334 175.907 431.753 174.488 431.753 172.737V166.571C435.259 165.548 440.954 163.593 445.056 160.911" fill="#FFF3B6"/>
<path d="M445.004 160.898L449.271 165.339C450.503 166.619 452.546 166.641 453.804 165.383L460.728 158.446C461.96 157.209 461.964 155.206 460.732 153.97L456.203 149.415C458.925 145.309 460.858 140.858 461.908 135.602C461.908 135.602 465.914 135.602 468.897 135.602C470.647 135.602 472.067 134.183 472.067 132.432V123.005C472.067 121.25 470.647 119.831 468.897 119.831H461.982C460.967 114.575 459.003 109.994 456.291 105.844L460.693 101.398C461.921 100.161 461.917 98.1627 460.684 96.926L453.778 90.0024C452.515 88.7352 450.451 88.7614 449.223 90.0677L445.274 94.2567C441.12 91.5047 435.272 89.4886 431.766 88.4479V82.7C431.766 80.9495 430.347 79.5299 428.596 79.5299H417.418C415.668 79.5299 414.248 80.9495 414.248 82.7V88.4479C408.992 89.4886 404.782 91.4873 400.627 94.2393L396.425 89.9458C395.189 88.683 393.16 88.6743 391.914 89.9284L385.017 96.8694C383.789 98.1017 383.789 100.096 385.008 101.333L389.458 105.844C386.745 109.994 384.812 114.575 383.797 119.831H377.113C375.363 119.831 373.939 121.25 373.939 123.005V132.432C373.939 134.183 375.359 135.602 377.113 135.607H383.867C384.917 140.863 386.898 145.313 389.619 149.419L385.091 153.974C383.858 155.215 383.863 157.214 385.095 158.45L392.019 165.387C393.273 166.645 395.319 166.628 396.552 165.343L400.819 160.902C404.921 163.584 408.979 165.548 414.235 166.571V172.737C414.235 174.488 415.655 175.907 417.405 175.907H428.583C430.334 175.907 431.753 174.488 431.753 172.737V166.571C435.259 165.548 440.954 163.593 445.056 160.911" stroke="#6C63FF" stroke-width="5" stroke-miterlimit="10" stroke-linecap="round" stroke-linejoin="round"/>
<path d="M423.005 151.326C436.044 151.326 446.615 140.756 446.615 127.716C446.615 114.677 436.044 104.107 423.005 104.107C409.965 104.107 399.395 114.677 399.395 127.716C399.395 140.756 409.965 151.326 423.005 151.326Z" fill="white" stroke="#6C63FF" stroke-width="5" stroke-miterlimit="10" stroke-linecap="round" stroke-linejoin="round"/>
<path d="M296.355 293.635C296.355 289.076 300.048 285.383 304.607 285.383H450.098C454.658 285.383 458.35 289.076 458.35 293.635V395.142C458.35 399.701 454.658 403.393 450.098 403.393H362.247H304.607C300.052 403.393 296.355 399.701 296.355 395.142V293.635Z" fill="#FF97AB" stroke="#6C63FF" stroke-width="5" stroke-miterlimit="10" stroke-linecap="round" stroke-linejoin="round"/>
<path d="M417.048 425.575H337.657" stroke="#6C63FF" stroke-width="5" stroke-miterlimit="10" stroke-linecap="round" stroke-linejoin="round"/>
<path d="M316.717 311.349C316.717 307.804 319.591 304.926 323.139 304.926H431.561C435.11 304.926 437.984 307.8 437.984 311.349V377.437C437.984 380.985 435.11 383.859 431.561 383.859H323.139C319.595 383.859 316.717 380.985 316.717 377.437V311.349Z" fill="white" stroke="#6C63FF" stroke-width="5" stroke-miterlimit="10" stroke-linecap="round" stroke-linejoin="round"/>
<path d="M395.768 403.398H358.933V425.575H395.768V403.398Z" fill="#FF97AB" stroke="#6C63FF" stroke-width="5" stroke-miterlimit="10" stroke-linecap="round" stroke-linejoin="round"/>
<path d="M365.508 443.798H383.544H394.761H431.352C439.295 443.798 445.73 450.239 445.73 458.181C445.73 461.613 444.398 465.114 441.859 467.966H352.484" fill="white"/>
<path d="M365.508 443.798H383.544H394.761H431.352C439.295 443.798 445.73 450.239 445.73 458.181C445.73 461.613 444.398 465.114 441.859 467.966H352.484" stroke="#6C63FF" stroke-width="5" stroke-miterlimit="10" stroke-linecap="round" stroke-linejoin="round"/>
<path d="M180.931 376.5H270.076C288.251 376.5 305.687 383.676 318.598 396.465L362.303 438.913C367.921 444.526 367.921 453.635 362.303 459.248C359.582 461.97 356.046 463.372 352.484 463.459L352.924 463.428H431.535C439.282 463.428 445.557 469.708 445.557 477.45C445.557 485.192 439.282 491.471 431.535 491.471H346.201C339.952 491.471 333.808 489.899 328.33 486.903L244.371 440.999H201.293" fill="white"/>
<path d="M180.931 376.5H270.076C288.251 376.5 305.687 383.676 318.598 396.465L362.303 438.913C367.921 444.526 367.921 453.635 362.303 459.248C359.582 461.97 356.046 463.372 352.484 463.459L352.924 463.428H431.535C439.282 463.428 445.557 469.708 445.557 477.45C445.557 485.192 439.282 491.471 431.535 491.471H346.201C339.952 491.471 333.808 489.899 328.33 486.903L244.371 440.999H201.293" stroke="#6C63FF" stroke-width="5" stroke-miterlimit="10" stroke-linecap="round" stroke-linejoin="round"/>
<path d="M303.827 421.116L341.964 459.248C344.859 462.148 348.683 463.55 352.48 463.459" fill="white"/>
<path d="M303.827 421.116L341.964 459.248C344.859 462.148 348.683 463.55 352.48 463.459" stroke="#6C63FF" stroke-width="5" stroke-miterlimit="10" stroke-linecap="round" stroke-linejoin="round"/>
<path d="M172.401 388.658C179.115 388.658 184.559 383.215 184.559 376.5C184.559 369.786 179.115 364.343 172.401 364.343C165.686 364.343 160.243 369.786 160.243 376.5C160.243 383.215 165.686 388.658 172.401 388.658Z" fill="#FFF3B6" stroke="#6C63FF" stroke-width="5" stroke-miterlimit="10" stroke-linecap="round" stroke-linejoin="round"/>
<path d="M236.686 376.5V352.037C236.686 344.016 230.184 337.515 222.163 337.515H213.171" stroke="#6C63FF" stroke-width="5" stroke-miterlimit="10" stroke-linecap="round" stroke-linejoin="round"/>
<path d="M212.537 342.169C215.106 335.966 212.16 328.854 205.957 326.284C199.753 323.714 192.641 326.66 190.072 332.864C187.502 339.067 190.448 346.179 196.651 348.749C202.855 351.319 209.967 348.373 212.537 342.169Z" fill="#FFF3B6" stroke="#6C63FF" stroke-width="5" stroke-miterlimit="10" stroke-linecap="round" stroke-linejoin="round"/>
<path d="M257.739 449.542L258.253 465.736C258.445 471.724 253.642 476.683 247.65 476.683H227.637" stroke="#6C63FF" stroke-width="5" stroke-miterlimit="10" stroke-linecap="round" stroke-linejoin="round"/>
<path d="M228.959 479.513C230.502 472.979 226.456 466.431 219.921 464.888C213.387 463.345 206.839 467.391 205.296 473.926C203.753 480.46 207.799 487.008 214.334 488.551C220.868 490.094 227.416 486.048 228.959 479.513Z" fill="#FFF3B6" stroke="#6C63FF" stroke-width="5" stroke-miterlimit="10" stroke-linecap="round" stroke-linejoin="round"/>
<path d="M224.933 440.999V423.036C224.933 414.123 217.709 406.899 208.795 406.899H155.313" stroke="#6C63FF" stroke-width="5" stroke-miterlimit="10" stroke-linecap="round" stroke-linejoin="round"/>
<path d="M156.52 411.555C159.089 405.351 156.144 398.239 149.94 395.669C143.737 393.1 136.624 396.046 134.055 402.249C131.485 408.453 134.431 415.565 140.635 418.134C146.838 420.704 153.95 417.758 156.52 411.555Z" fill="#FFF3B6" stroke="#6C63FF" stroke-width="5" stroke-miterlimit="10" stroke-linecap="round" stroke-linejoin="round"/>
<path d="M204.009 445.653C206.578 439.45 203.632 432.338 197.429 429.768C191.225 427.198 184.113 430.144 181.544 436.348C178.974 442.551 181.92 449.663 188.123 452.233C194.327 454.803 201.439 451.857 204.009 445.653Z" fill="#FFF3B6" stroke="#6C63FF" stroke-width="5" stroke-miterlimit="10" stroke-linecap="round" stroke-linejoin="round"/>
</svg>
