<svg width="31" height="36" viewBox="0 0 31 36" fill="none" xmlns="http://www.w3.org/2000/svg">
<path d="M16.5382 9.53059L18.4643 12.1887L20.5298 6.57846C19.9189 8.22045 18.3741 9.41688 16.5382 9.53059Z" fill="#369FFF"/>
<path d="M15.9601 9.53059L14.0339 12.1887L11.9684 6.57846C12.5793 8.22045 14.1238 9.41688 15.9601 9.53059Z" fill="#369FFF"/>
<path d="M16.0149 11.4408L15.4451 10.6514L16.2491 9.53986L17.0548 10.6514L16.485 11.4408L17.663 21.4737L16.2491 22.8763L14.8353 21.4737L16.0149 11.4408Z" fill="#369FFF"/>
<path d="M13.7871 7.45696C12.4273 6.10796 12.4273 3.92079 13.7871 2.57179C15.1469 1.22279 17.3515 1.22279 18.7113 2.57179C20.0711 3.92079 20.0711 6.10796 18.7113 7.45696C17.3515 8.80596 15.1469 8.80596 13.7871 7.45696Z" fill="#369FFF"/>
<path d="M20.759 6.65039C22.9067 7.34325 24.8743 8.53438 26.518 10.1651C26.6026 10.249 26.6861 10.3335 26.7677 10.4194L22.5191 14.6342C21.4959 13.5306 20.1799 12.6959 18.6956 12.2543L20.759 6.65039Z" fill="#FF993A"/>
<path d="M5.98087 10.1651C7.6243 8.53471 9.59154 7.34325 11.7392 6.65039L13.803 12.2539C12.3183 12.6955 11.0031 13.5296 9.97951 14.6335L5.73159 10.4194C5.81312 10.3338 5.89633 10.2493 5.98087 10.1651Z" fill="#FF993A"/>
<path d="M5.20761 10.9938L9.47591 15.2283C8.38018 16.6511 7.72856 18.4274 7.72856 20.3521C7.72856 25.0135 11.5511 28.8054 16.2495 28.8054C20.9478 28.8054 24.7704 25.0132 24.7704 20.3521C24.7704 18.4274 24.1187 16.6511 23.023 15.2283L27.2913 10.9938C29.5432 13.6009 30.771 16.8825 30.771 20.3521C30.771 24.2003 29.2605 27.8178 26.5177 30.5389C23.7749 33.2599 20.1281 34.7584 16.2495 34.7584C12.3708 34.7584 8.72404 33.2599 5.9812 30.5389C3.23837 27.8178 1.72794 24.2 1.72794 20.3521C1.7276 16.8825 2.95533 13.6009 5.20761 10.9938Z" fill="white"/>
<path d="M10.646 21.4568L14.889 25.6661L4.47247 36L0.229431 31.7907L10.646 21.4568Z" fill="white"/>
</svg>
